<svg viewBox="0 0 640 250" xmlns="http://www.w3.org/2000/svg" font-family="sans-serif">
  <g font-size="14" text-anchor="middle">
    <g fill="#31549e"><rect x="20" y="20" width="150" height="42"/><rect x="170" y="20" width="150" height="42"/><rect x="320" y="20" width="150" height="42"/><rect x="470" y="20" width="150" height="42"/></g>
    <g fill="#e8ecf4" font-weight="bold">
      <text x="95" y="46">참조</text><text x="245" y="46">아래로 복사 ↓</text><text x="395" y="46">오른쪽 복사 →</text><text x="545" y="46">고정되는 것</text>
    </g>
    <g fill="#232e45"><rect x="20" y="62" width="600" height="42"/><rect x="20" y="146" width="600" height="42"/></g>
    <g fill="#1a2233"><rect x="20" y="104" width="600" height="42"/><rect x="20" y="188" width="600" height="42"/></g>
    <g fill="#e8ecf4" font-family="monospace" font-size="15">
      <text x="95" y="88">=A1</text><text x="95" y="130">=$A$1</text><text x="95" y="172">=$A1</text><text x="95" y="214">=A$1</text>
    </g>
    <g font-family="monospace" font-size="15">
      <text x="245" y="88" fill="#e74c3c">=A2</text><text x="395" y="88" fill="#e74c3c">=B1</text><text x="545" y="88" fill="#8b96ab" font-family="sans-serif" font-size="13">없음 (상대)</text>
      <text x="245" y="130" fill="#2ecc71">=$A$1</text><text x="395" y="130" fill="#2ecc71">=$A$1</text><text x="545" y="130" fill="#8b96ab" font-family="sans-serif" font-size="13">행+열 (절대)</text>
      <text x="245" y="172" fill="#e74c3c">=$A2</text><text x="395" y="172" fill="#2ecc71">=$A1</text><text x="545" y="172" fill="#8b96ab" font-family="sans-serif" font-size="13">열만 고정</text>
      <text x="245" y="214" fill="#2ecc71">=A$1</text><text x="395" y="214" fill="#e74c3c">=B$1</text><text x="545" y="214" fill="#8b96ab" font-family="sans-serif" font-size="13">행만 고정</text>
    </g>
    <text x="320" y="244" fill="#8b96ab" font-size="12">$가 붙은 쪽이 고정 · F4로 전환 — 조건부 서식 행 전체 적용은 $A1 형태</text>
  </g>
</svg>
