<svg viewBox="0 0 640 320" xmlns="http://www.w3.org/2000/svg" font-family="sans-serif">
  <g text-anchor="middle" font-size="15" fill="var(--dg-text,#e8ecf4)">
    <polygon points="270,20 370,20 400,80 240,80" fill="var(--dg-accent-fill,#4f8cff)"/>
    <text x="320" y="56" font-weight="bold">레지스터</text>
    <polygon points="235,90 405,90 435,150 205,150" fill="var(--dg-fill2,#3f6fd0)"/>
    <text x="320" y="118">캐시 메모리</text>
    <text x="320" y="138" font-size="12" fill="var(--dg-text2,#cdd8ee)">SRAM · CPU와 주기억 속도차 완화</text>
    <polygon points="200,160 440,160 470,220 170,220" fill="var(--dg-fill,#31549e)"/>
    <text x="320" y="188">주기억장치</text>
    <text x="320" y="208" font-size="12" fill="var(--dg-text2,#cdd8ee)">DRAM(재충전 필요) · ROM</text>
    <polygon points="165,230 475,230 505,290 135,290" fill="var(--dg-panel,#232e45)"/>
    <text x="320" y="258">보조기억장치</text>
    <text x="320" y="278" font-size="12" fill="var(--dg-muted,#8b96ab)">SSD &gt; HDD · 비휘발성 · 대용량</text>
  </g>
  <g font-size="13" fill="var(--dg-muted,#8b96ab)">
    <path d="M95,270 L95,50" stroke="var(--dg-green,#2ecc71)" stroke-width="2" marker-end="url(#a1)"/>
    <text x="60" y="160" fill="var(--dg-green,#2ecc71)" text-anchor="middle" transform="rotate(-90 60 160)">속도 · 비트당 비용 ↑</text>
    <path d="M555,50 L555,270" stroke="var(--dg-red,#e74c3c)" stroke-width="2" marker-end="url(#a2)"/>
    <text x="590" y="160" fill="var(--dg-red,#e74c3c)" text-anchor="middle" transform="rotate(90 590 160)">용량 ↑</text>
  </g>
  <defs>
    <marker id="a1" markerWidth="8" markerHeight="8" refX="4" refY="4" orient="auto"><path d="M0,0 L8,4 L0,8 z" fill="var(--dg-green,#2ecc71)"/></marker>
    <marker id="a2" markerWidth="8" markerHeight="8" refX="4" refY="4" orient="auto"><path d="M0,0 L8,4 L0,8 z" fill="var(--dg-red,#e74c3c)"/></marker>
  </defs>
</svg>
